<?xml version="1.0" encoding="utf-8"?>
<!-- created with bpmn-js / http://bpmn.io -->
<!DOCTYPE svg PUBLIC "-//W3C//DTD SVG 1.1//EN" "http://www.w3.org/Graphics/SVG/1.1/DTD/svg11.dtd">
<svg xmlns="http://www.w3.org/2000/svg" xmlns:xlink="http://www.w3.org/1999/xlink" width="1205" height="335" viewBox="292 143 1205 335" version="1.1"><defs><marker id="sequenceflow-end-white-black-9zvodbcz9nox96c886ohl4j1p" viewBox="0 0 20 20" refX="11" refY="10" markerWidth="10" markerHeight="10" orient="auto"><path d="M 1 5 L 11 10 L 1 15 Z" style="fill: black; stroke-width: 1px; stroke-linecap: round; stroke-dasharray: 10000, 1; stroke: black;"/></marker><marker id="conditional-default-flow-marker-white-black-9zvodbcz9nox96c886ohl4j1p" viewBox="0 0 20 20" refX="0" refY="10" markerWidth="10" markerHeight="10" orient="auto"><path d="M 6 4 L 10 16" style="fill: black; stroke-width: 1px; stroke-linecap: round; stroke-dasharray: 10000, 1; stroke: black;"/></marker></defs><g class="djs-group"><g class="djs-element djs-connection" data-element-id="SequenceFlow_1bdfjst" style="display: block;"><g class="djs-visual"><path d="m  657,322L719,322 " style="fill: none; stroke-width: 2px; stroke: black; stroke-linejoin: round; marker-end: url('#sequenceflow-end-white-black-9zvodbcz9nox96c886ohl4j1p');"/></g><polyline points="657,322 719,322 " class="djs-hit" style="fill: none; stroke-opacity: 0; stroke: white; stroke-width: 15px;"/><rect x="651" y="316" width="74" height="12" class="djs-outline" style="fill: none;"/></g></g><g class="djs-group"><g class="djs-element djs-connection" data-element-id="SequenceFlow_09um5u6" style="display: block;"><g class="djs-visual"><path d="m  501,322L555,322 " style="fill: none; stroke-width: 2px; stroke: black; stroke-linejoin: round; marker-end: url('#sequenceflow-end-white-black-9zvodbcz9nox96c886ohl4j1p');"/></g><polyline points="501,322 555,322 " class="djs-hit" style="fill: none; stroke-opacity: 0; stroke: white; stroke-width: 15px;"/><rect x="495" y="316" width="66" height="12" class="djs-outline" style="fill: none;"/></g></g><g class="djs-group"><g class="djs-element djs-connection" data-element-id="SequenceFlow_1exndm5" style="display: block;"><g class="djs-visual"><path d="m  334,322L399,322 " style="fill: none; stroke-width: 2px; stroke: black; stroke-linejoin: round; marker-end: url('#sequenceflow-end-white-black-9zvodbcz9nox96c886ohl4j1p');"/></g><polyline points="334,322 399,322 " class="djs-hit" style="fill: none; stroke-opacity: 0; stroke: white; stroke-width: 15px;"/><rect x="328" y="316" width="77" height="12" class="djs-outline" style="fill: none;"/></g></g><g class="djs-group"><g class="djs-element djs-connection" data-element-id="SequenceFlow_0673y74" style="display: block;"><g class="djs-visual"><path d="m  744,297L744,246 L823,246 " style="fill: none; stroke-width: 2px; stroke: black; stroke-linejoin: round; marker-end: url('#sequenceflow-end-white-black-9zvodbcz9nox96c886ohl4j1p');"/></g><polyline points="744,297 744,246 823,246 " class="djs-hit" style="fill: none; stroke-opacity: 0; stroke: white; stroke-width: 15px;"/><rect x="738" y="240" width="91" height="63" class="djs-outline" style="fill: none;"/></g></g><g class="djs-group"><g class="djs-element djs-connection" data-element-id="SequenceFlow_0i5651y" style="display: block;"><g class="djs-visual"><path d="m  744,347L744,432 L823,432 " style="fill: none; stroke-width: 2px; stroke: black; stroke-linejoin: round; marker-end: url('#sequenceflow-end-white-black-9zvodbcz9nox96c886ohl4j1p');"/></g><polyline points="744,347 744,432 823,432 " class="djs-hit" style="fill: none; stroke-opacity: 0; stroke: white; stroke-width: 15px;"/><rect x="738" y="341" width="91" height="97" class="djs-outline" style="fill: none;"/></g></g><g class="djs-group"><g class="djs-element djs-connection" data-element-id="SequenceFlow_0v5c9ze" style="display: block;"><g class="djs-visual"><path d="m  925,432L979,432 " style="fill: none; stroke-width: 2px; stroke: black; stroke-linejoin: round; marker-end: url('#sequenceflow-end-white-black-9zvodbcz9nox96c886ohl4j1p');"/></g><polyline points="925,432 979,432 " class="djs-hit" style="fill: none; stroke-opacity: 0; stroke: white; stroke-width: 15px;"/><rect x="919" y="426" width="66" height="12" class="djs-outline" style="fill: none;"/></g></g><g class="djs-group"><g class="djs-element djs-connection" data-element-id="SequenceFlow_19s4u23" style="display: block;"><g class="djs-visual"><path d="m  925,246L979,246 " style="fill: none; stroke-width: 2px; stroke: black; stroke-linejoin: round; marker-end: url('#sequenceflow-end-white-black-9zvodbcz9nox96c886ohl4j1p');"/></g><polyline points="925,246 979,246 " class="djs-hit" style="fill: none; stroke-opacity: 0; stroke: white; stroke-width: 15px;"/><rect x="919" y="240" width="66" height="12" class="djs-outline" style="fill: none;"/></g></g><g class="djs-group"><g class="djs-element djs-connection" data-element-id="SequenceFlow_0nwzvy3" style="display: block;"><g class="djs-visual"><path d="m  1004,221L1004,189 L1083,189 " style="fill: none; stroke-width: 2px; stroke: black; stroke-linejoin: round; marker-end: url('#sequenceflow-end-white-black-9zvodbcz9nox96c886ohl4j1p');"/></g><polyline points="1004,221 1004,189 1083,189 " class="djs-hit" style="fill: none; stroke-opacity: 0; stroke: white; stroke-width: 15px;"/><rect x="998" y="183" width="91" height="44" class="djs-outline" style="fill: none;"/></g></g><g class="djs-group"><g class="djs-element djs-connection" data-element-id="SequenceFlow_1gifaqf" style="display: block;"><g class="djs-visual"><path d="m  1185,189L1238,189 " style="fill: none; stroke-width: 2px; stroke: black; stroke-linejoin: round; marker-end: url('#sequenceflow-end-white-black-9zvodbcz9nox96c886ohl4j1p');"/></g><polyline points="1185,189 1238,189 " class="djs-hit" style="fill: none; stroke-opacity: 0; stroke: white; stroke-width: 15px;"/><rect x="1179" y="183" width="65" height="12" class="djs-outline" style="fill: none;"/></g></g><g class="djs-group"><g class="djs-element djs-connection" data-element-id="SequenceFlow_1xjjkcl" style="display: block;"><g class="djs-visual"><path d="m  1004,271L1004,356 L1083,356 " style="fill: none; stroke-width: 2px; stroke: black; stroke-linejoin: round; marker-end: url('#sequenceflow-end-white-black-9zvodbcz9nox96c886ohl4j1p');"/></g><polyline points="1004,271 1004,356 1083,356 " class="djs-hit" style="fill: none; stroke-opacity: 0; stroke: white; stroke-width: 15px;"/><rect x="998" y="265" width="91" height="97" class="djs-outline" style="fill: none;"/></g></g><g class="djs-group"><g class="djs-element djs-connection" data-element-id="SequenceFlow_17po36h" style="display: block;"><g class="djs-visual"><path d="m  1185,356L1238,356 " style="fill: none; stroke-width: 2px; stroke: black; stroke-linejoin: round; marker-end: url('#sequenceflow-end-white-black-9zvodbcz9nox96c886ohl4j1p');"/></g><polyline points="1185,356 1238,356 " class="djs-hit" style="fill: none; stroke-opacity: 0; stroke: white; stroke-width: 15px;"/><rect x="1179" y="350" width="65" height="12" class="djs-outline" style="fill: none;"/></g></g><g class="djs-group"><g class="djs-element djs-connection" data-element-id="SequenceFlow_1dc1kan" style="display: block;"><g class="djs-visual"><path d="m  1340,356L1397,356 L1397,297 " style="fill: none; stroke-width: 2px; stroke: black; stroke-linejoin: round; marker-end: url('#sequenceflow-end-white-black-9zvodbcz9nox96c886ohl4j1p');"/></g><polyline points="1340,356 1397,356 1397,297 " class="djs-hit" style="fill: none; stroke-opacity: 0; stroke: white; stroke-width: 15px;"/><rect x="1334" y="291" width="69" height="71" class="djs-outline" style="fill: none;"/></g></g><g class="djs-group"><g class="djs-element djs-connection" data-element-id="SequenceFlow_1pdauo9" style="display: block;"><g class="djs-visual"><path d="m  1340,189L1397,189 L1397,247 " style="fill: none; stroke-width: 2px; stroke: black; stroke-linejoin: round; marker-end: url('#sequenceflow-end-white-black-9zvodbcz9nox96c886ohl4j1p');"/></g><polyline points="1340,189 1397,189 1397,247 " class="djs-hit" style="fill: none; stroke-opacity: 0; stroke: white; stroke-width: 15px;"/><rect x="1334" y="183" width="69" height="70" class="djs-outline" style="fill: none;"/></g></g><g class="djs-group"><g class="djs-element djs-connection" data-element-id="SequenceFlow_13ys9k5" style="display: block;"><g class="djs-visual"><path d="m  1422,272L1455,272 " style="fill: none; stroke-width: 2px; stroke: black; stroke-linejoin: round; marker-end: url('#sequenceflow-end-white-black-9zvodbcz9nox96c886ohl4j1p');"/></g><polyline points="1422,272 1455,272 " class="djs-hit" style="fill: none; stroke-opacity: 0; stroke: white; stroke-width: 15px;"/><rect x="1416" y="266" width="45" height="12" class="djs-outline" style="fill: none;"/></g></g><g class="djs-group"><g class="djs-element djs-shape" data-element-id="StartEvent_1pcxo0s" style="display: block;" transform="matrix(1 0 0 1 298 304)"><g class="djs-visual"><circle cx="18" cy="18" r="18" style="stroke: black; stroke-width: 2px; fill: white; fill-opacity: 0.95;"/></g><rect x="0" y="0" width="36" height="36" class="djs-hit" style="fill: none; stroke-opacity: 0; stroke: white; stroke-width: 15px;"/><rect x="-6" y="-6" width="48" height="48" class="djs-outline" style="fill: none;"/></g></g><g class="djs-group"><g class="djs-element djs-shape" data-element-id="ChoreographyTask_12nxx7n" style="display: block;" transform="matrix(1 0 0 1 400 282)"><g class="djs-visual"><g><path d="M10,0a10,10,0,0,0,-10,10l0,60a10,10,0,0,0,10,10l80,0a10,10,0,0,0,10,-10l0,-60a10,10,0,0,0,-10,-10z" style="fill: white; stroke: black; stroke-width: 2px;"/><text lineHeight="1.2" class="djs-label" transform="translate(0, 20)" style="font-family: Arial, sans-serif; font-size: 12px; font-weight: normal; fill: black;"><tspan x="26.1328125" y="15.6">Activity 1</tspan></text></g></g><rect x="0" y="0" width="100" height="80" class="djs-hit" style="fill: none; stroke-opacity: 0; stroke: white; stroke-width: 15px;"/><rect x="-6" y="-6" width="112" height="92" class="djs-outline" style="fill: none;"/></g><g class="djs-children"><g class="djs-group"><g class="djs-element djs-shape" data-element-id="Participant_0a8eu9l_ChoreographyTask_12nxx7n" style="display: block;" transform="matrix(1 0 0 1 400 282)"><g class="djs-visual"><g><path d="M0,20l100,0l0,-10a10,10,0,0,0,-10,-10l-80,0a10,10,0,0,0,-10,10z" style="stroke: rgb(0, 0, 0); stroke-width: 2px; fill: lightgray; fill-opacity: 1;"/><text lineHeight="1.2" class="djs-label" transform="translate(0, 0)" style="font-family: Arial, sans-serif; font-size: 12px; font-weight: normal; fill: black;"><tspan x="34.9921875" y="13.6">Other</tspan></text></g></g><rect x="0" y="0" width="100" height="20" class="djs-hit" style="fill: none; stroke-opacity: 0; stroke: white; stroke-width: 15px;"/><rect x="-6" y="-6" width="112" height="32" class="djs-outline" style="fill: none;"/></g></g><g class="djs-group"><g class="djs-element djs-shape" data-element-id="Participant_0bln1au_ChoreographyTask_12nxx7n" style="display: block;" transform="matrix(1 0 0 1 400 326)"><g class="djs-visual"><g><path d="M100,0l-100,0l0,26a10,10,0,0,0,10,10l80,0a10,10,0,0,0,10,-10z" style="stroke: rgb(0, 0, 0); stroke-width: 2px; fill: white; fill-opacity: 1;"/><path d="m44,21 m 3,2 l 0,10 m 3,-10 l 0,10 m 3,-10 l 0,10" data-marker="participant-multiplicity" style="fill: transparent; stroke-width: 1px; stroke: black;"/><text lineHeight="1.2" class="djs-label" transform="translate(0, 0)" style="font-family: Arial, sans-serif; font-size: 12px; font-weight: normal; fill: black;"><tspan x="31.125" y="14.1">Testing</tspan></text></g></g><rect x="0" y="0" width="100" height="36" class="djs-hit" style="fill: none; stroke-opacity: 0; stroke: white; stroke-width: 15px;"/><rect x="-6" y="-6" width="112" height="48" class="djs-outline" style="fill: none;"/></g><g class="djs-children"><g class="djs-group"><g class="djs-element djs-shape" data-element-id="Message_06fz16u" style="display: none;" transform="matrix(1 0 0 1 432.5 382)"><g class="djs-visual"><g><path d="M17.5,-20l0,20" style="stroke: black; stroke-width: 2px; stroke-dasharray: 0, 4; stroke-linecap: round;"/><path d="M0,0l0,25l35,0l0,-25zM0,0l17.5,15l17.5,-15" style="stroke: rgb(0, 0, 0); stroke-width: 2px; fill: white; fill-opacity: 1;"/></g></g><rect x="0" y="0" width="35" height="25" class="djs-hit" style="fill: none; stroke-opacity: 0; stroke: white; stroke-width: 15px;"/><rect x="-6" y="-6" width="47" height="37" class="djs-outline" style="fill: none;"/></g></g></g></g></g></g><g class="djs-group"><g class="djs-element djs-shape" data-element-id="ChoreographyTask_02gdu8w" style="display: block;" transform="matrix(1 0 0 1 556 282)"><g class="djs-visual"><g><path d="M10,0a10,10,0,0,0,-10,10l0,60a10,10,0,0,0,10,10l80,0a10,10,0,0,0,10,-10l0,-60a10,10,0,0,0,-10,-10z" style="fill: white; stroke: black; stroke-width: 2px;"/><text lineHeight="1.2" class="djs-label" transform="translate(0, 20)" style="font-family: Arial, sans-serif; font-size: 12px; font-weight: normal; fill: black;"><tspan x="26.1328125" y="15.6">Activity 2</tspan></text></g></g><rect x="0" y="0" width="100" height="80" class="djs-hit" style="fill: none; stroke-opacity: 0; stroke: white; stroke-width: 15px;"/><rect x="-6" y="-6" width="112" height="92" class="djs-outline" style="fill: none;"/></g><g class="djs-children"><g class="djs-group"><g class="djs-element djs-shape" data-element-id="Participant_0a8eu9l_ChoreographyTask_02gdu8w" style="display: block;" transform="matrix(1 0 0 1 556 282)"><g class="djs-visual"><g><path d="M0,20l100,0l0,-10a10,10,0,0,0,-10,-10l-80,0a10,10,0,0,0,-10,10z" style="stroke: rgb(0, 0, 0); stroke-width: 2px; fill: white; fill-opacity: 1;"/><text lineHeight="1.2" class="djs-label" transform="translate(0, 0)" style="font-family: Arial, sans-serif; font-size: 12px; font-weight: normal; fill: black;"><tspan x="34.9921875" y="13.6">Other</tspan></text></g></g><rect x="0" y="0" width="100" height="20" class="djs-hit" style="fill: none; stroke-opacity: 0; stroke: white; stroke-width: 15px;"/><rect x="-6" y="-6" width="112" height="32" class="djs-outline" style="fill: none;"/></g><g class="djs-children"><g class="djs-group"><g class="djs-element djs-shape" data-element-id="Message_1mpty7c" style="display: none;" transform="matrix(1 0 0 1 588.5 237)"><g class="djs-visual"><g><path d="M17.5,25l0,20" style="stroke: black; stroke-width: 2px; stroke-dasharray: 0, 4; stroke-linecap: round;"/><path d="M0,0l0,25l35,0l0,-25zM0,0l17.5,15l17.5,-15" style="stroke: rgb(0, 0, 0); stroke-width: 2px; fill: white; fill-opacity: 1;"/></g></g><rect x="0" y="0" width="35" height="25" class="djs-hit" style="fill: none; stroke-opacity: 0; stroke: white; stroke-width: 15px;"/><rect x="-6" y="-6" width="47" height="37" class="djs-outline" style="fill: none;"/></g></g></g></g><g class="djs-group"><g class="djs-element djs-shape" data-element-id="Participant_0bln1au_ChoreographyTask_02gdu8w" style="display: block;" transform="matrix(1 0 0 1 556 326)"><g class="djs-visual"><g><path d="M100,0l-100,0l0,26a10,10,0,0,0,10,10l80,0a10,10,0,0,0,10,-10z" style="stroke: rgb(0, 0, 0); stroke-width: 2px; fill: lightgray; fill-opacity: 1;"/><path d="m44,21 m 3,2 l 0,10 m 3,-10 l 0,10 m 3,-10 l 0,10" data-marker="participant-multiplicity" style="fill: transparent; stroke-width: 1px; stroke: black;"/><text lineHeight="1.2" class="djs-label" transform="translate(0, 0)" style="font-family: Arial, sans-serif; font-size: 12px; font-weight: normal; fill: black;"><tspan x="31.125" y="14.1">Testing</tspan></text></g></g><rect x="0" y="0" width="100" height="36" class="djs-hit" style="fill: none; stroke-opacity: 0; stroke: white; stroke-width: 15px;"/><rect x="-6" y="-6" width="112" height="48" class="djs-outline" style="fill: none;"/></g></g></g></g><g class="djs-group"><g class="djs-element djs-shape" data-element-id="ExclusiveGateway_1gtpsr0" style="display: block;" transform="matrix(1 0 0 1 719 297)"><g class="djs-visual"><polygon points="25,0 50,25 25,50 0,25" style="stroke: black; stroke-width: 2px; fill: white; fill-opacity: 0.95;"/><path d="m 16,15 7.42857142857143,9.714285714285715 -7.42857142857143,9.714285714285715 3.428571428571429,0 5.714285714285715,-7.464228571428572 5.714285714285715,7.464228571428572 3.428571428571429,0 -7.42857142857143,-9.714285714285715 7.42857142857143,-9.714285714285715 -3.428571428571429,0 -5.714285714285715,7.464228571428572 -5.714285714285715,-7.464228571428572 -3.428571428571429,0 z" style="fill: black; stroke-width: 1px; stroke: black;"/></g><rect x="0" y="0" width="50" height="50" class="djs-hit" style="fill: none; stroke-opacity: 0; stroke: white; stroke-width: 15px;"/><rect x="-6" y="-6" width="62" height="62" class="djs-outline" style="fill: none;"/></g></g><g class="djs-group"><g class="djs-element djs-shape" data-element-id="ChoreographyTask_05aua3a" style="display: block;" transform="matrix(1 0 0 1 824 206)"><g class="djs-visual"><g><path d="M10,0a10,10,0,0,0,-10,10l0,60a10,10,0,0,0,10,10l80,0a10,10,0,0,0,10,-10l0,-60a10,10,0,0,0,-10,-10z" style="fill: white; stroke: black; stroke-width: 2px;"/><text lineHeight="1.2" class="djs-label" transform="translate(0, 36)" style="font-family: Arial, sans-serif; font-size: 12px; font-weight: normal; fill: black;"><tspan x="26.1328125" y="15.6">Activity 3</tspan></text></g></g><rect x="0" y="0" width="100" height="80" class="djs-hit" style="fill: none; stroke-opacity: 0; stroke: white; stroke-width: 15px;"/><rect x="-6" y="-6" width="112" height="92" class="djs-outline" style="fill: none;"/></g><g class="djs-children"><g class="djs-group"><g class="djs-element djs-shape" data-element-id="ParticipantBand_07ucotu" style="display: block;" transform="matrix(1 0 0 1 824 206)"><g class="djs-visual"><g><path d="M0,36l100,0l0,-26a10,10,0,0,0,-10,-10l-80,0a10,10,0,0,0,-10,10z" style="stroke: rgb(0, 0, 0); stroke-width: 2px; fill: white; fill-opacity: 1;"/><path d="m44,21 m 3,2 l 0,10 m 3,-10 l 0,10 m 3,-10 l 0,10" data-marker="participant-multiplicity" style="fill: transparent; stroke-width: 1px; stroke: black;"/><text lineHeight="1.2" class="djs-label" transform="translate(0, 0)" style="font-family: Arial, sans-serif; font-size: 12px; font-weight: normal; fill: black;"><tspan x="31.125" y="14.1">Testing</tspan></text></g></g><rect x="0" y="0" width="100" height="36" class="djs-hit" style="fill: none; stroke-opacity: 0; stroke: white; stroke-width: 15px;"/><rect x="-6" y="-6" width="112" height="48" class="djs-outline" style="fill: none;"/></g><g class="djs-children"><g class="djs-group"><g class="djs-element djs-shape" data-element-id="Message_1ivs29w" style="display: none;" transform="matrix(1 0 0 1 856.5 161)"><g class="djs-visual"><g><path d="M17.5,25l0,20" style="stroke: black; stroke-width: 2px; stroke-dasharray: 0, 4; stroke-linecap: round;"/><path d="M0,0l0,25l35,0l0,-25zM0,0l17.5,15l17.5,-15" style="stroke: rgb(0, 0, 0); stroke-width: 2px; fill: white; fill-opacity: 1;"/></g></g><rect x="0" y="0" width="35" height="25" class="djs-hit" style="fill: none; stroke-opacity: 0; stroke: white; stroke-width: 15px;"/><rect x="-6" y="-6" width="47" height="37" class="djs-outline" style="fill: none;"/></g></g></g></g><g class="djs-group"><g class="djs-element djs-shape" data-element-id="ParticipantBand_0lkd2al" style="display: block;" transform="matrix(1 0 0 1 824 266)"><g class="djs-visual"><g><path d="M100,0l-100,0l0,10a10,10,0,0,0,10,10l80,0a10,10,0,0,0,10,-10z" style="stroke: rgb(0, 0, 0); stroke-width: 2px; fill: lightgray; fill-opacity: 1;"/><text lineHeight="1.2" class="djs-label" transform="translate(0, 0)" style="font-family: Arial, sans-serif; font-size: 12px; font-weight: normal; fill: black;"><tspan x="34.9921875" y="13.6">Other</tspan></text></g></g><rect x="0" y="0" width="100" height="20" class="djs-hit" style="fill: none; stroke-opacity: 0; stroke: white; stroke-width: 15px;"/><rect x="-6" y="-6" width="112" height="32" class="djs-outline" style="fill: none;"/></g></g></g></g><g class="djs-group"><g class="djs-element djs-shape" data-element-id="ChoreographyTask_1cd404m" style="display: block;" transform="matrix(1 0 0 1 824 392)"><g class="djs-visual"><g><path d="M10,0a10,10,0,0,0,-10,10l0,60a10,10,0,0,0,10,10l80,0a10,10,0,0,0,10,-10l0,-60a10,10,0,0,0,-10,-10z" style="fill: white; stroke: black; stroke-width: 2px;"/><text lineHeight="1.2" class="djs-label" transform="translate(0, 36)" style="font-family: Arial, sans-serif; font-size: 12px; font-weight: normal; fill: black;"><tspan x="7.78125" y="15.6">Activity 3 to end</tspan></text></g></g><rect x="0" y="0" width="100" height="80" class="djs-hit" style="fill: none; stroke-opacity: 0; stroke: white; stroke-width: 15px;"/><rect x="-6" y="-6" width="112" height="92" class="djs-outline" style="fill: none;"/></g><g class="djs-children"><g class="djs-group"><g class="djs-element djs-shape" data-element-id="ParticipantBand_0dc9cl2" style="display: block;" transform="matrix(1 0 0 1 824 392)"><g class="djs-visual"><g><path d="M0,36l100,0l0,-26a10,10,0,0,0,-10,-10l-80,0a10,10,0,0,0,-10,10z" style="stroke: rgb(0, 0, 0); stroke-width: 2px; fill: white; fill-opacity: 1;"/><path d="m44,21 m 3,2 l 0,10 m 3,-10 l 0,10 m 3,-10 l 0,10" data-marker="participant-multiplicity" style="fill: transparent; stroke-width: 1px; stroke: black;"/><text lineHeight="1.2" class="djs-label" transform="translate(0, 0)" style="font-family: Arial, sans-serif; font-size: 12px; font-weight: normal; fill: black;"><tspan x="31.125" y="14.1">Testing</tspan></text></g></g><rect x="0" y="0" width="100" height="36" class="djs-hit" style="fill: none; stroke-opacity: 0; stroke: white; stroke-width: 15px;"/><rect x="-6" y="-6" width="112" height="48" class="djs-outline" style="fill: none;"/></g><g class="djs-children"><g class="djs-group"><g class="djs-element djs-shape" data-element-id="Message_021roqe" style="display: none;" transform="matrix(1 0 0 1 856.5 347)"><g class="djs-visual"><g><path d="M17.5,25l0,20" style="stroke: black; stroke-width: 2px; stroke-dasharray: 0, 4; stroke-linecap: round;"/><path d="M0,0l0,25l35,0l0,-25zM0,0l17.5,15l17.5,-15" style="stroke: rgb(0, 0, 0); stroke-width: 2px; fill: white; fill-opacity: 1;"/></g></g><rect x="0" y="0" width="35" height="25" class="djs-hit" style="fill: none; stroke-opacity: 0; stroke: white; stroke-width: 15px;"/><rect x="-6" y="-6" width="47" height="37" class="djs-outline" style="fill: none;"/></g></g></g></g><g class="djs-group"><g class="djs-element djs-shape" data-element-id="ParticipantBand_0kxlplh" style="display: block;" transform="matrix(1 0 0 1 824 452)"><g class="djs-visual"><g><path d="M100,0l-100,0l0,10a10,10,0,0,0,10,10l80,0a10,10,0,0,0,10,-10z" style="stroke: rgb(0, 0, 0); stroke-width: 2px; fill: lightgray; fill-opacity: 1;"/><text lineHeight="1.2" class="djs-label" transform="translate(0, 0)" style="font-family: Arial, sans-serif; font-size: 12px; font-weight: normal; fill: black;"><tspan x="34.9921875" y="13.6">Other</tspan></text></g></g><rect x="0" y="0" width="100" height="20" class="djs-hit" style="fill: none; stroke-opacity: 0; stroke: white; stroke-width: 15px;"/><rect x="-6" y="-6" width="112" height="32" class="djs-outline" style="fill: none;"/></g></g></g></g><g class="djs-group"><g class="djs-element djs-shape" data-element-id="EndEvent_0d8twy4" style="display: block;" transform="matrix(1 0 0 1 979 414)"><g class="djs-visual"><circle cx="18" cy="18" r="18" style="stroke: black; stroke-width: 4px; fill: white; fill-opacity: 0.95;"/></g><rect x="0" y="0" width="36" height="36" class="djs-hit" style="fill: none; stroke-opacity: 0; stroke: white; stroke-width: 15px;"/><rect x="-6" y="-6" width="48" height="48" class="djs-outline" style="fill: none;"/></g></g><g class="djs-group"><g class="djs-element djs-shape" data-element-id="ParallelGateway_0xt4dr5" style="display: block;" transform="matrix(1 0 0 1 979 221)"><g class="djs-visual"><polygon points="25,0 50,25 25,50 0,25" style="stroke: black; stroke-width: 2px; fill: white; fill-opacity: 0.95;"/><path d="m 23,10 0,12.5 -12.5,0 0,5 12.5,0 0,12.5 5,0 0,-12.5 12.5,0 0,-5 -12.5,0 0,-12.5 -5,0 z" style="fill: black; stroke-width: 1px; stroke: black;"/></g><rect x="0" y="0" width="50" height="50" class="djs-hit" style="fill: none; stroke-opacity: 0; stroke: white; stroke-width: 15px;"/><rect x="-6" y="-6" width="62" height="62" class="djs-outline" style="fill: none;"/></g></g><g class="djs-group"><g class="djs-element djs-shape" data-element-id="ChoreographyTask_0vpxqls" style="display: block;" transform="matrix(1 0 0 1 1084 149)"><g class="djs-visual"><g><path d="M10,0a10,10,0,0,0,-10,10l0,60a10,10,0,0,0,10,10l80,0a10,10,0,0,0,10,-10l0,-60a10,10,0,0,0,-10,-10z" style="fill: white; stroke: black; stroke-width: 2px;"/><text lineHeight="1.2" class="djs-label" transform="translate(0, 36)" style="font-family: Arial, sans-serif; font-size: 12px; font-weight: normal; fill: black;"><tspan x="21.125" y="15.6">Activity 4.1</tspan></text></g></g><rect x="0" y="0" width="100" height="80" class="djs-hit" style="fill: none; stroke-opacity: 0; stroke: white; stroke-width: 15px;"/><rect x="-6" y="-6" width="112" height="92" class="djs-outline" style="fill: none;"/></g><g class="djs-children"><g class="djs-group"><g class="djs-element djs-shape" data-element-id="ParticipantBand_1vupnd7" style="display: block;" transform="matrix(1 0 0 1 1084 149)"><g class="djs-visual"><g><path d="M0,36l100,0l0,-26a10,10,0,0,0,-10,-10l-80,0a10,10,0,0,0,-10,10z" style="stroke: rgb(0, 0, 0); stroke-width: 2px; fill: white; fill-opacity: 1;"/><path d="m44,21 m 3,2 l 0,10 m 3,-10 l 0,10 m 3,-10 l 0,10" data-marker="participant-multiplicity" style="fill: transparent; stroke-width: 1px; stroke: black;"/><text lineHeight="1.2" class="djs-label" transform="translate(0, 0)" style="font-family: Arial, sans-serif; font-size: 12px; font-weight: normal; fill: black;"><tspan x="31.125" y="14.1">Testing</tspan></text></g></g><rect x="0" y="0" width="100" height="36" class="djs-hit" style="fill: none; stroke-opacity: 0; stroke: white; stroke-width: 15px;"/><rect x="-6" y="-6" width="112" height="48" class="djs-outline" style="fill: none;"/></g><g class="djs-children"><g class="djs-group"><g class="djs-element djs-shape" data-element-id="Message_09pdb4d" style="display: none;" transform="matrix(1 0 0 1 1116.5 104)"><g class="djs-visual"><g><path d="M17.5,25l0,20" style="stroke: black; stroke-width: 2px; stroke-dasharray: 0, 4; stroke-linecap: round;"/><path d="M0,0l0,25l35,0l0,-25zM0,0l17.5,15l17.5,-15" style="stroke: rgb(0, 0, 0); stroke-width: 2px; fill: white; fill-opacity: 1;"/></g></g><rect x="0" y="0" width="35" height="25" class="djs-hit" style="fill: none; stroke-opacity: 0; stroke: white; stroke-width: 15px;"/><rect x="-6" y="-6" width="47" height="37" class="djs-outline" style="fill: none;"/></g></g></g></g><g class="djs-group"><g class="djs-element djs-shape" data-element-id="ParticipantBand_0tx0ko9" style="display: block;" transform="matrix(1 0 0 1 1084 209)"><g class="djs-visual"><g><path d="M100,0l-100,0l0,10a10,10,0,0,0,10,10l80,0a10,10,0,0,0,10,-10z" style="stroke: rgb(0, 0, 0); stroke-width: 2px; fill: lightgray; fill-opacity: 1;"/><text lineHeight="1.2" class="djs-label" transform="translate(0, 0)" style="font-family: Arial, sans-serif; font-size: 12px; font-weight: normal; fill: black;"><tspan x="34.9921875" y="13.6">Other</tspan></text></g></g><rect x="0" y="0" width="100" height="20" class="djs-hit" style="fill: none; stroke-opacity: 0; stroke: white; stroke-width: 15px;"/><rect x="-6" y="-6" width="112" height="32" class="djs-outline" style="fill: none;"/></g></g></g></g><g class="djs-group"><g class="djs-element djs-shape" data-element-id="ChoreographyTask_0khm4y3" style="display: block;" transform="matrix(1 0 0 1 1239 149)"><g class="djs-visual"><g><path d="M10,0a10,10,0,0,0,-10,10l0,60a10,10,0,0,0,10,10l80,0a10,10,0,0,0,10,-10l0,-60a10,10,0,0,0,-10,-10z" style="fill: white; stroke: black; stroke-width: 2px;"/><text lineHeight="1.2" class="djs-label" transform="translate(0, 36)" style="font-family: Arial, sans-serif; font-size: 12px; font-weight: normal; fill: black;"><tspan x="21.125" y="15.6">Activity 5.1</tspan></text></g></g><rect x="0" y="0" width="100" height="80" class="djs-hit" style="fill: none; stroke-opacity: 0; stroke: white; stroke-width: 15px;"/><rect x="-6" y="-6" width="112" height="92" class="djs-outline" style="fill: none;"/></g><g class="djs-children"><g class="djs-group"><g class="djs-element djs-shape" data-element-id="ParticipantBand_1isza0g" style="display: block;" transform="matrix(1 0 0 1 1239 149)"><g class="djs-visual"><g><path d="M0,36l100,0l0,-26a10,10,0,0,0,-10,-10l-80,0a10,10,0,0,0,-10,10z" style="stroke: rgb(0, 0, 0); stroke-width: 2px; fill: white; fill-opacity: 1;"/><path d="m44,21 m 3,2 l 0,10 m 3,-10 l 0,10 m 3,-10 l 0,10" data-marker="participant-multiplicity" style="fill: transparent; stroke-width: 1px; stroke: black;"/><text lineHeight="1.2" class="djs-label" transform="translate(0, 0)" style="font-family: Arial, sans-serif; font-size: 12px; font-weight: normal; fill: black;"><tspan x="31.125" y="14.1">Testing</tspan></text></g></g><rect x="0" y="0" width="100" height="36" class="djs-hit" style="fill: none; stroke-opacity: 0; stroke: white; stroke-width: 15px;"/><rect x="-6" y="-6" width="112" height="48" class="djs-outline" style="fill: none;"/></g><g class="djs-children"><g class="djs-group"><g class="djs-element djs-shape" data-element-id="Message_0jg4ukl" style="display: none;" transform="matrix(1 0 0 1 1271.5 104)"><g class="djs-visual"><g><path d="M17.5,25l0,20" style="stroke: black; stroke-width: 2px; stroke-dasharray: 0, 4; stroke-linecap: round;"/><path d="M0,0l0,25l35,0l0,-25zM0,0l17.5,15l17.5,-15" style="stroke: rgb(0, 0, 0); stroke-width: 2px; fill: white; fill-opacity: 1;"/></g></g><rect x="0" y="0" width="35" height="25" class="djs-hit" style="fill: none; stroke-opacity: 0; stroke: white; stroke-width: 15px;"/><rect x="-6" y="-6" width="47" height="37" class="djs-outline" style="fill: none;"/></g></g></g></g><g class="djs-group"><g class="djs-element djs-shape" data-element-id="ParticipantBand_01w9e6i" style="display: block;" transform="matrix(1 0 0 1 1239 209)"><g class="djs-visual"><g><path d="M100,0l-100,0l0,10a10,10,0,0,0,10,10l80,0a10,10,0,0,0,10,-10z" style="stroke: rgb(0, 0, 0); stroke-width: 2px; fill: lightgray; fill-opacity: 1;"/><text lineHeight="1.2" class="djs-label" transform="translate(0, 0)" style="font-family: Arial, sans-serif; font-size: 12px; font-weight: normal; fill: black;"><tspan x="34.9921875" y="13.6">Other</tspan></text></g></g><rect x="0" y="0" width="100" height="20" class="djs-hit" style="fill: none; stroke-opacity: 0; stroke: white; stroke-width: 15px;"/><rect x="-6" y="-6" width="112" height="32" class="djs-outline" style="fill: none;"/></g></g></g></g><g class="djs-group"><g class="djs-element djs-shape" data-element-id="ChoreographyTask_1nuxni6" style="display: block;" transform="matrix(1 0 0 1 1084 316)"><g class="djs-visual"><g><path d="M10,0a10,10,0,0,0,-10,10l0,60a10,10,0,0,0,10,10l80,0a10,10,0,0,0,10,-10l0,-60a10,10,0,0,0,-10,-10z" style="fill: white; stroke: black; stroke-width: 2px;"/><text lineHeight="1.2" class="djs-label" transform="translate(0, 36)" style="font-family: Arial, sans-serif; font-size: 12px; font-weight: normal; fill: black;"><tspan x="21.125" y="15.6">Activity 4.2</tspan></text></g></g><rect x="0" y="0" width="100" height="80" class="djs-hit" style="fill: none; stroke-opacity: 0; stroke: white; stroke-width: 15px;"/><rect x="-6" y="-6" width="112" height="92" class="djs-outline" style="fill: none;"/></g><g class="djs-children"><g class="djs-group"><g class="djs-element djs-shape" data-element-id="ParticipantBand_09sna93" style="display: block;" transform="matrix(1 0 0 1 1084 316)"><g class="djs-visual"><g><path d="M0,36l100,0l0,-26a10,10,0,0,0,-10,-10l-80,0a10,10,0,0,0,-10,10z" style="stroke: rgb(0, 0, 0); stroke-width: 2px; fill: white; fill-opacity: 1;"/><path d="m44,21 m 3,2 l 0,10 m 3,-10 l 0,10 m 3,-10 l 0,10" data-marker="participant-multiplicity" style="fill: transparent; stroke-width: 1px; stroke: black;"/><text lineHeight="1.2" class="djs-label" transform="translate(0, 0)" style="font-family: Arial, sans-serif; font-size: 12px; font-weight: normal; fill: black;"><tspan x="31.125" y="14.1">Testing</tspan></text></g></g><rect x="0" y="0" width="100" height="36" class="djs-hit" style="fill: none; stroke-opacity: 0; stroke: white; stroke-width: 15px;"/><rect x="-6" y="-6" width="112" height="48" class="djs-outline" style="fill: none;"/></g><g class="djs-children"><g class="djs-group"><g class="djs-element djs-shape" data-element-id="Message_14hpsub" style="display: none;" transform="matrix(1 0 0 1 1116.5 271)"><g class="djs-visual"><g><path d="M17.5,25l0,20" style="stroke: black; stroke-width: 2px; stroke-dasharray: 0, 4; stroke-linecap: round;"/><path d="M0,0l0,25l35,0l0,-25zM0,0l17.5,15l17.5,-15" style="stroke: rgb(0, 0, 0); stroke-width: 2px; fill: white; fill-opacity: 1;"/></g></g><rect x="0" y="0" width="35" height="25" class="djs-hit" style="fill: none; stroke-opacity: 0; stroke: white; stroke-width: 15px;"/><rect x="-6" y="-6" width="47" height="37" class="djs-outline" style="fill: none;"/></g></g></g></g><g class="djs-group"><g class="djs-element djs-shape" data-element-id="ParticipantBand_0b9giqw" style="display: block;" transform="matrix(1 0 0 1 1084 376)"><g class="djs-visual"><g><path d="M100,0l-100,0l0,10a10,10,0,0,0,10,10l80,0a10,10,0,0,0,10,-10z" style="stroke: rgb(0, 0, 0); stroke-width: 2px; fill: lightgray; fill-opacity: 1;"/><text lineHeight="1.2" class="djs-label" transform="translate(0, 0)" style="font-family: Arial, sans-serif; font-size: 12px; font-weight: normal; fill: black;"><tspan x="34.9921875" y="13.6">Other</tspan></text></g></g><rect x="0" y="0" width="100" height="20" class="djs-hit" style="fill: none; stroke-opacity: 0; stroke: white; stroke-width: 15px;"/><rect x="-6" y="-6" width="112" height="32" class="djs-outline" style="fill: none;"/></g></g></g></g><g class="djs-group"><g class="djs-element djs-shape" data-element-id="ChoreographyTask_0ntzf0g" style="display: block;" transform="matrix(1 0 0 1 1239 316)"><g class="djs-visual"><g><path d="M10,0a10,10,0,0,0,-10,10l0,60a10,10,0,0,0,10,10l80,0a10,10,0,0,0,10,-10l0,-60a10,10,0,0,0,-10,-10z" style="fill: white; stroke: black; stroke-width: 2px;"/><text lineHeight="1.2" class="djs-label" transform="translate(0, 36)" style="font-family: Arial, sans-serif; font-size: 12px; font-weight: normal; fill: black;"><tspan x="21.125" y="15.6">Activity 5.2</tspan></text></g></g><rect x="0" y="0" width="100" height="80" class="djs-hit" style="fill: none; stroke-opacity: 0; stroke: white; stroke-width: 15px;"/><rect x="-6" y="-6" width="112" height="92" class="djs-outline" style="fill: none;"/></g><g class="djs-children"><g class="djs-group"><g class="djs-element djs-shape" data-element-id="ParticipantBand_0k3jen8" style="display: block;" transform="matrix(1 0 0 1 1239 316)"><g class="djs-visual"><g><path d="M0,36l100,0l0,-26a10,10,0,0,0,-10,-10l-80,0a10,10,0,0,0,-10,10z" style="stroke: rgb(0, 0, 0); stroke-width: 2px; fill: white; fill-opacity: 1;"/><path d="m44,21 m 3,2 l 0,10 m 3,-10 l 0,10 m 3,-10 l 0,10" data-marker="participant-multiplicity" style="fill: transparent; stroke-width: 1px; stroke: black;"/><text lineHeight="1.2" class="djs-label" transform="translate(0, 0)" style="font-family: Arial, sans-serif; font-size: 12px; font-weight: normal; fill: black;"><tspan x="31.125" y="14.1">Testing</tspan></text></g></g><rect x="0" y="0" width="100" height="36" class="djs-hit" style="fill: none; stroke-opacity: 0; stroke: white; stroke-width: 15px;"/><rect x="-6" y="-6" width="112" height="48" class="djs-outline" style="fill: none;"/></g><g class="djs-children"><g class="djs-group"><g class="djs-element djs-shape" data-element-id="Message_1r74p0m" style="display: none;" transform="matrix(1 0 0 1 1271.5 271)"><g class="djs-visual"><g><path d="M17.5,25l0,20" style="stroke: black; stroke-width: 2px; stroke-dasharray: 0, 4; stroke-linecap: round;"/><path d="M0,0l0,25l35,0l0,-25zM0,0l17.5,15l17.5,-15" style="stroke: rgb(0, 0, 0); stroke-width: 2px; fill: white; fill-opacity: 1;"/></g></g><rect x="0" y="0" width="35" height="25" class="djs-hit" style="fill: none; stroke-opacity: 0; stroke: white; stroke-width: 15px;"/><rect x="-6" y="-6" width="47" height="37" class="djs-outline" style="fill: none;"/></g></g></g></g><g class="djs-group"><g class="djs-element djs-shape" data-element-id="ParticipantBand_03e7bz9" style="display: block;" transform="matrix(1 0 0 1 1239 376)"><g class="djs-visual"><g><path d="M100,0l-100,0l0,10a10,10,0,0,0,10,10l80,0a10,10,0,0,0,10,-10z" style="stroke: rgb(0, 0, 0); stroke-width: 2px; fill: lightgray; fill-opacity: 1;"/><text lineHeight="1.2" class="djs-label" transform="translate(0, 0)" style="font-family: Arial, sans-serif; font-size: 12px; font-weight: normal; fill: black;"><tspan x="34.9921875" y="13.6">Other</tspan></text></g></g><rect x="0" y="0" width="100" height="20" class="djs-hit" style="fill: none; stroke-opacity: 0; stroke: white; stroke-width: 15px;"/><rect x="-6" y="-6" width="112" height="32" class="djs-outline" style="fill: none;"/></g></g></g></g><g class="djs-group"><g class="djs-element djs-shape" data-element-id="ParallelGateway_0gyeyvt" style="display: block;" transform="matrix(1 0 0 1 1372 247)"><g class="djs-visual"><polygon points="25,0 50,25 25,50 0,25" style="stroke: black; stroke-width: 2px; fill: white; fill-opacity: 0.95;"/><path d="m 23,10 0,12.5 -12.5,0 0,5 12.5,0 0,12.5 5,0 0,-12.5 12.5,0 0,-5 -12.5,0 0,-12.5 -5,0 z" style="fill: black; stroke-width: 1px; stroke: black;"/></g><rect x="0" y="0" width="50" height="50" class="djs-hit" style="fill: none; stroke-opacity: 0; stroke: white; stroke-width: 15px;"/><rect x="-6" y="-6" width="62" height="62" class="djs-outline" style="fill: none;"/></g></g><g class="djs-group"><g class="djs-element djs-shape" data-element-id="EndEvent_0168dg4" style="display: block;" transform="matrix(1 0 0 1 1455 254)"><g class="djs-visual"><circle cx="18" cy="18" r="18" style="stroke: black; stroke-width: 4px; fill: white; fill-opacity: 0.95;"/></g><rect x="0" y="0" width="36" height="36" class="djs-hit" style="fill: none; stroke-opacity: 0; stroke: white; stroke-width: 15px;"/><rect x="-6" y="-6" width="48" height="48" class="djs-outline" style="fill: none;"/></g></g><g class="djs-drag-group" style="pointer-events: none;" transform="matrix(1 0 0 1 -8 -76)"/><g class="djs-drag-group" style="pointer-events: none;" transform="matrix(1 0 0 1 0 -57)"/></svg>