<?xml version="1.0" encoding="utf-8"?>
<!-- created with bpmn-js / http://bpmn.io -->
<!DOCTYPE svg PUBLIC "-//W3C//DTD SVG 1.1//EN" "http://www.w3.org/Graphics/SVG/1.1/DTD/svg11.dtd">
<svg xmlns="http://www.w3.org/2000/svg" xmlns:xlink="http://www.w3.org/1999/xlink" width="738" height="219.89999389648438" viewBox="154 189.10000610351562 738 219.89999389648438" version="1.1"><defs><marker id="sequenceflow-end-white-black-7otoxcxa41jh9rx3rl27s4n0z" viewBox="0 0 20 20" refX="11" refY="10" markerWidth="10" markerHeight="10" orient="auto"><path d="M 1 5 L 11 10 L 1 15 Z" style="fill: black; stroke-width: 1px; stroke-linecap: round; stroke-dasharray: 10000, 1; stroke: black;"/></marker></defs><g class="djs-group"><g class="djs-element djs-connection" data-element-id="SequenceFlow_0vmd3ne" style="display: block;"><g class="djs-visual"><path d="m  196,294L241,294 " style="fill: none; stroke-width: 2px; stroke: black; stroke-linejoin: round; marker-end: url('#sequenceflow-end-white-black-7otoxcxa41jh9rx3rl27s4n0z');"/></g><polyline points="196,294 241,294 " style="fill: none; stroke-opacity: 0; stroke: white; stroke-width: 15px;" class="djs-hit"/><rect x="190" y="288" width="57" height="12" style="fill: none;" class="djs-outline"/></g></g><g class="djs-group"><g class="djs-element djs-connection" data-element-id="SequenceFlow_1363g2x" style="display: block;"><g class="djs-visual"><path d="m  343,294L392,294 " style="fill: none; stroke-width: 2px; stroke: black; stroke-linejoin: round; marker-end: url('#sequenceflow-end-white-black-7otoxcxa41jh9rx3rl27s4n0z');"/></g><polyline points="343,294 392,294 " style="fill: none; stroke-opacity: 0; stroke: white; stroke-width: 15px;" class="djs-hit"/><rect x="337" y="288" width="61" height="12" style="fill: none;" class="djs-outline"/></g></g><g class="djs-group"><g class="djs-element djs-connection" data-element-id="SequenceFlow_1muewig" style="display: block;"><g class="djs-visual"><path d="m  417,319L417,363 L487,363 " style="fill: none; stroke-width: 2px; stroke: black; stroke-linejoin: round; marker-end: url('#sequenceflow-end-white-black-7otoxcxa41jh9rx3rl27s4n0z');"/></g><polyline points="417,319 417,363 487,363 " style="fill: none; stroke-opacity: 0; stroke: white; stroke-width: 15px;" class="djs-hit"/><rect x="411" y="313" width="82" height="56" style="fill: none;" class="djs-outline"/></g></g><g class="djs-group"><g class="djs-element djs-connection" data-element-id="SequenceFlow_0jrpo35" style="display: block;"><g class="djs-visual"><path d="m  442,294L615,294 " style="fill: none; stroke-width: 2px; stroke: black; stroke-linejoin: round; marker-end: url('#sequenceflow-end-white-black-7otoxcxa41jh9rx3rl27s4n0z');"/></g><polyline points="442,294 615,294 " style="fill: none; stroke-opacity: 0; stroke: white; stroke-width: 15px;" class="djs-hit"/><rect x="436" y="288" width="185" height="12" style="fill: none;" class="djs-outline"/></g></g><g class="djs-group"><g class="djs-element djs-connection" data-element-id="SequenceFlow_09rvowj" style="display: block;"><g class="djs-visual"><path d="m  589,363L640,363 L640,319 " style="fill: none; stroke-width: 2px; stroke: black; stroke-linejoin: round; marker-end: url('#sequenceflow-end-white-black-7otoxcxa41jh9rx3rl27s4n0z');"/></g><polyline points="589,363 640,363 640,319 " style="fill: none; stroke-opacity: 0; stroke: white; stroke-width: 15px;" class="djs-hit"/><rect x="583" y="313" width="63" height="56" style="fill: none;" class="djs-outline"/></g></g><g class="djs-group"><g class="djs-element djs-connection" data-element-id="SequenceFlow_11pkotq" style="display: block;"><g class="djs-visual"><path d="m  665,294L704,294 " style="fill: none; stroke-width: 2px; stroke: black; stroke-linejoin: round; marker-end: url('#sequenceflow-end-white-black-7otoxcxa41jh9rx3rl27s4n0z');"/></g><polyline points="665,294 704,294 " style="fill: none; stroke-opacity: 0; stroke: white; stroke-width: 15px;" class="djs-hit"/><rect x="659" y="288" width="51" height="12" style="fill: none;" class="djs-outline"/></g></g><g class="djs-group"><g class="djs-element djs-connection" data-element-id="SequenceFlow_1jn1kdt" style="display: block;"><g class="djs-visual"><path d="m  806,294L850,294 " style="fill: none; stroke-width: 2px; stroke: black; stroke-linejoin: round; marker-end: url('#sequenceflow-end-white-black-7otoxcxa41jh9rx3rl27s4n0z');"/></g><polyline points="806,294 850,294 " style="fill: none; stroke-opacity: 0; stroke: white; stroke-width: 15px;" class="djs-hit"/><rect x="800" y="288" width="56" height="12" style="fill: none;" class="djs-outline"/></g></g><g class="djs-group"><g class="djs-element djs-shape" data-element-id="ChoreographyTask_18v5byi" transform="translate(242, 254)" style="display: block;"><g class="djs-visual"><g><path d="M10,0a10,10,0,0,0,-10,10l0,60a10,10,0,0,0,10,10l80,0a10,10,0,0,0,10,-10l0,-60a10,10,0,0,0,-10,-10z" style="fill: white; stroke: black; stroke-width: 2px;"/><text style="font-family: Arial, sans-serif; font-size: 12px; font-weight: normal; fill: black;" lineHeight="1.2" class="djs-label" transform="translate(0, 20)"><tspan x="19.5" y="23.6">send order</tspan></text></g></g><rect x="0" y="0" width="100" height="80" style="fill: none; stroke-opacity: 0; stroke: white; stroke-width: 15px;" class="djs-hit"/><rect x="-6" y="-6" width="112" height="92" style="fill: none;" class="djs-outline"/></g><g class="djs-children"><g class="djs-group"><g class="djs-element djs-shape" data-element-id="ParticipantBand_0g3x2rg" transform="translate(242, 254)" style="display: block;"><g class="djs-visual"><g><path d="M0,20l100,0l0,-10a10,10,0,0,0,-10,-10l-80,0a10,10,0,0,0,-10,10z" style="stroke: rgb(0, 0, 0); stroke-width: 2px; fill: white; fill-opacity: 1;"/><text style="font-family: Arial, sans-serif; font-size: 12px; font-weight: normal; fill: black;" lineHeight="1.2" class="djs-label" transform="translate(0, 0)"><tspan x="22" y="13.6">Customer</tspan></text></g></g><rect x="0" y="0" width="100" height="20" style="fill: none; stroke-opacity: 0; stroke: white; stroke-width: 15px;" class="djs-hit"/><rect x="-6" y="-6" width="112" height="32" style="fill: none;" class="djs-outline"/></g><g class="djs-children"><g class="djs-group"><g class="djs-element djs-shape" data-element-id="Message_056npt5" transform="translate(274.5, 209)" style="display: block;"><g class="djs-visual"><g><path d="M17.5,25l0,20" style="stroke: black; stroke-width: 2px; stroke-dasharray: 0, 4; stroke-linecap: round;"/><path d="M0,0l0,25l35,0l0,-25zM0,0l17.5,15l17.5,-15" style="stroke: rgb(0, 0, 0); stroke-width: 2px; fill: white; fill-opacity: 1;"/><text style="font-family: Arial, sans-serif; font-size: 12px; font-weight: normal; fill: black;" lineHeight="1.2" class="djs-label" transform="translate(-32.5, -25)"><tspan x="35" y="16.1">order</tspan></text></g></g><rect x="0" y="0" width="35" height="25" style="fill: none; stroke-opacity: 0; stroke: white; stroke-width: 15px;" class="djs-hit"/><rect x="-6" y="-6" width="47" height="37" style="fill: none;" class="djs-outline"/></g></g></g></g><g class="djs-group"><g class="djs-element djs-shape" data-element-id="ParticipantBand_0f2rsb1" transform="translate(242, 314)" style="display: block;"><g class="djs-visual"><g><path d="M100,0l-100,0l0,10a10,10,0,0,0,10,10l80,0a10,10,0,0,0,10,-10z" style="stroke: rgb(0, 0, 0); stroke-width: 2px; fill: lightgray; fill-opacity: 1;"/><text style="font-family: Arial, sans-serif; font-size: 12px; font-weight: normal; fill: black;" lineHeight="1.2" class="djs-label" transform="translate(0, 0)"><tspan x="35" y="13.6">Shop</tspan></text></g></g><rect x="0" y="0" width="100" height="20" style="fill: none; stroke-opacity: 0; stroke: white; stroke-width: 15px;" class="djs-hit"/><rect x="-6" y="-6" width="112" height="32" style="fill: none;" class="djs-outline"/></g></g></g></g><g class="djs-group"><g class="djs-element djs-shape" data-element-id="ExclusiveGateway_0f1f4ys" transform="translate(392, 269)" style="display: block;"><g class="djs-visual"><polygon points="25,0 50,25 25,50 0,25" style="stroke: black; stroke-width: 2px; fill: white; fill-opacity: 0.95;"/><path d="m 16,15 7.42857142857143,9.714285714285715 -7.42857142857143,9.714285714285715 3.428571428571429,0 5.714285714285715,-7.464228571428572 5.714285714285715,7.464228571428572 3.428571428571429,0 -7.42857142857143,-9.714285714285715 7.42857142857143,-9.714285714285715 -3.428571428571429,0 -5.714285714285715,7.464228571428572 -5.714285714285715,-7.464228571428572 -3.428571428571429,0 z" style="fill: black; stroke-width: 1px; stroke: black;"/></g><rect x="0" y="0" width="50" height="50" style="fill: none; stroke-opacity: 0; stroke: white; stroke-width: 15px;" class="djs-hit"/><rect x="-6" y="-6" width="62" height="62" style="fill: none;" class="djs-outline"/></g></g><g class="djs-group"><g class="djs-element djs-shape" data-element-id="ChoreographyTask_1twvq4y" transform="translate(488, 323)" style="display: block;"><g class="djs-visual"><g><path d="M10,0a10,10,0,0,0,-10,10l0,60a10,10,0,0,0,10,10l80,0a10,10,0,0,0,10,-10l0,-60a10,10,0,0,0,-10,-10z" style="fill: white; stroke: black; stroke-width: 2px;"/><text style="font-family: Arial, sans-serif; font-size: 12px; font-weight: normal; fill: black;" lineHeight="1.2" class="djs-label" transform="translate(0, 20)"><tspan x="23" y="16.4">offer extra </tspan><tspan x="22" y="30.799999999999997">insurance</tspan></text></g></g><rect x="0" y="0" width="100" height="80" style="fill: none; stroke-opacity: 0; stroke: white; stroke-width: 15px;" class="djs-hit"/><rect x="-6" y="-6" width="112" height="92" style="fill: none;" class="djs-outline"/></g><g class="djs-children"><g class="djs-group"><g class="djs-element djs-shape" data-element-id="ParticipantBand_0rcrb7m" transform="translate(488, 383)" style="display: block;"><g class="djs-visual"><g><path d="M100,0l-100,0l0,10a10,10,0,0,0,10,10l80,0a10,10,0,0,0,10,-10z" style="stroke: rgb(0, 0, 0); stroke-width: 2px; fill: lightgray; fill-opacity: 1;"/><text style="font-family: Arial, sans-serif; font-size: 12px; font-weight: normal; fill: black;" lineHeight="1.2" class="djs-label" transform="translate(0, 0)"><tspan x="22" y="13.6">Customer</tspan></text></g></g><rect x="0" y="0" width="100" height="20" style="fill: none; stroke-opacity: 0; stroke: white; stroke-width: 15px;" class="djs-hit"/><rect x="-6" y="-6" width="112" height="32" style="fill: none;" class="djs-outline"/></g><g class="djs-children"><g class="djs-group"><g class="djs-element djs-shape" data-element-id="Message_0mtps77" transform="translate(520.5, 423)" style="display: none;"><g class="djs-visual"><g><path d="M17.5,-20l0,20" style="stroke: black; stroke-width: 2px; stroke-dasharray: 0, 4; stroke-linecap: round;"/><path d="M0,0l0,25l35,0l0,-25zM0,0l17.5,15l17.5,-15" style="stroke: rgb(0, 0, 0); stroke-width: 2px; fill: lightgray; fill-opacity: 1;"/></g></g><rect x="0" y="0" width="35" height="25" style="fill: none; stroke-opacity: 0; stroke: white; stroke-width: 15px;" class="djs-hit"/><rect x="-6" y="-6" width="47" height="37" style="fill: none;" class="djs-outline"/></g></g></g></g><g class="djs-group"><g class="djs-element djs-shape" data-element-id="ParticipantBand_12nxe7j" transform="translate(488, 323)" style="display: block;"><g class="djs-visual"><g><path d="M0,20l100,0l0,-10a10,10,0,0,0,-10,-10l-80,0a10,10,0,0,0,-10,10z" style="stroke: rgb(0, 0, 0); stroke-width: 2px; fill: white; fill-opacity: 1;"/><text style="font-family: Arial, sans-serif; font-size: 12px; font-weight: normal; fill: black;" lineHeight="1.2" class="djs-label" transform="translate(0, 0)"><tspan x="35" y="13.6">Shop</tspan></text></g></g><rect x="0" y="0" width="100" height="20" style="fill: none; stroke-opacity: 0; stroke: white; stroke-width: 15px;" class="djs-hit"/><rect x="-6" y="-6" width="112" height="32" style="fill: none;" class="djs-outline"/></g></g></g></g><g class="djs-group"><g class="djs-element djs-shape" data-element-id="SequenceFlow_1muewig_label" transform="translate(336, 343)" style="display: block;"><g class="djs-visual"><text style="font-family: Arial, sans-serif; font-size: 11px; font-weight: normal; fill: black;" lineHeight="1.2" class="djs-label"><tspan x="2.5" y="9.899999999999999">[order amount </tspan><tspan x="0" y="23.099999999999998">more than USD </tspan><tspan x="25.5" y="36.3">500]</tspan></text></g><rect x="0" y="0" width="73" height="40" style="fill: none; stroke-opacity: 0; stroke: white; stroke-width: 15px;" class="djs-hit"/><rect x="-6" y="-6" width="85" height="52" style="fill: none;" class="djs-outline"/></g></g><g class="djs-group"><g class="djs-element djs-shape" data-element-id="ExclusiveGateway_07n8s9d" transform="translate(615, 269)" style="display: block;"><g class="djs-visual"><polygon points="25,0 50,25 25,50 0,25" style="stroke: black; stroke-width: 2px; fill: white; fill-opacity: 0.95;"/><path d="m 16,15 7.42857142857143,9.714285714285715 -7.42857142857143,9.714285714285715 3.428571428571429,0 5.714285714285715,-7.464228571428572 5.714285714285715,7.464228571428572 3.428571428571429,0 -7.42857142857143,-9.714285714285715 7.42857142857143,-9.714285714285715 -3.428571428571429,0 -5.714285714285715,7.464228571428572 -5.714285714285715,-7.464228571428572 -3.428571428571429,0 z" style="fill: black; stroke-width: 1px; stroke: black;"/></g><rect x="0" y="0" width="50" height="50" style="fill: none; stroke-opacity: 0; stroke: white; stroke-width: 15px;" class="djs-hit"/><rect x="-6" y="-6" width="62" height="62" style="fill: none;" class="djs-outline"/></g></g><g class="djs-group"><g class="djs-element djs-shape" data-element-id="ChoreographyTask_0k1cukl" transform="translate(705, 254)" style="display: block;"><g class="djs-visual"><g><path d="M10,0a10,10,0,0,0,-10,10l0,60a10,10,0,0,0,10,10l80,0a10,10,0,0,0,10,-10l0,-60a10,10,0,0,0,-10,-10z" style="fill: white; stroke: black; stroke-width: 2px;"/><text style="font-family: Arial, sans-serif; font-size: 12px; font-weight: normal; fill: black;" lineHeight="1.2" class="djs-label" transform="translate(0, 20)"><tspan x="21" y="23.6">fulfill order</tspan></text></g></g><rect x="0" y="0" width="100" height="80" style="fill: none; stroke-opacity: 0; stroke: white; stroke-width: 15px;" class="djs-hit"/><rect x="-6" y="-6" width="112" height="92" style="fill: none;" class="djs-outline"/></g><g class="djs-children"><g class="djs-group"><g class="djs-element djs-shape" data-element-id="ParticipantBand_12uaesu" transform="translate(705, 314)" style="display: block;"><g class="djs-visual"><g><path d="M100,0l-100,0l0,10a10,10,0,0,0,10,10l80,0a10,10,0,0,0,10,-10z" style="stroke: rgb(0, 0, 0); stroke-width: 2px; fill: lightgray; fill-opacity: 1;"/><text style="font-family: Arial, sans-serif; font-size: 12px; font-weight: normal; fill: black;" lineHeight="1.2" class="djs-label" transform="translate(0, 0)"><tspan x="22" y="13.6">Customer</tspan></text></g></g><rect x="0" y="0" width="100" height="20" style="fill: none; stroke-opacity: 0; stroke: white; stroke-width: 15px;" class="djs-hit"/><rect x="-6" y="-6" width="112" height="32" style="fill: none;" class="djs-outline"/></g><g class="djs-children"><g class="djs-group"><g class="djs-element djs-shape" data-element-id="Message_1j0tqzj" transform="translate(737.5, 354)" style="display: none;"><g class="djs-visual"><g><path d="M17.5,-20l0,20" style="stroke: black; stroke-width: 2px; stroke-dasharray: 0, 4; stroke-linecap: round;"/><path d="M0,0l0,25l35,0l0,-25zM0,0l17.5,15l17.5,-15" style="stroke: rgb(0, 0, 0); stroke-width: 2px; fill: lightgray; fill-opacity: 1;"/></g></g><rect x="0" y="0" width="35" height="25" style="fill: none; stroke-opacity: 0; stroke: white; stroke-width: 15px;" class="djs-hit"/><rect x="-6" y="-6" width="47" height="37" style="fill: none;" class="djs-outline"/></g></g></g></g><g class="djs-group"><g class="djs-element djs-shape" data-element-id="ParticipantBand_19ei8pq" transform="translate(705, 254)" style="display: block;"><g class="djs-visual"><g><path d="M0,20l100,0l0,-10a10,10,0,0,0,-10,-10l-80,0a10,10,0,0,0,-10,10z" style="stroke: rgb(0, 0, 0); stroke-width: 2px; fill: white; fill-opacity: 1;"/><text style="font-family: Arial, sans-serif; font-size: 12px; font-weight: normal; fill: black;" lineHeight="1.2" class="djs-label" transform="translate(0, 0)"><tspan x="35" y="13.6">Shop</tspan></text></g></g><rect x="0" y="0" width="100" height="20" style="fill: none; stroke-opacity: 0; stroke: white; stroke-width: 15px;" class="djs-hit"/><rect x="-6" y="-6" width="112" height="32" style="fill: none;" class="djs-outline"/></g></g></g></g><g class="djs-group"><g class="djs-element djs-shape" data-element-id="EndEvent_0fw1v5w" transform="translate(850, 276)" style="display: block;"><g class="djs-visual"><circle cx="18" cy="18" r="18" style="stroke: black; stroke-width: 4px; fill: white; fill-opacity: 0.95;"/></g><rect x="0" y="0" width="36" height="36" style="fill: none; stroke-opacity: 0; stroke: white; stroke-width: 15px;" class="djs-hit"/><rect x="-6" y="-6" width="48" height="48" style="fill: none;" class="djs-outline"/></g></g><g class="djs-group"><g class="djs-element djs-shape selected" data-element-id="StartEvent_1glkb35" transform="translate(160, 276)" style="display: block;"><g class="djs-visual"><circle cx="18" cy="18" r="18" style="stroke: black; stroke-width: 2px; fill: white; fill-opacity: 0.95;"/></g><rect x="0" y="0" width="36" height="36" style="fill: none; stroke-opacity: 0; stroke: white; stroke-width: 15px;" class="djs-hit"/><rect x="-6" y="-6" width="48" height="48" style="fill: none;" class="djs-outline"/></g></g><g style="pointer-events: none;" class="djs-drag-group" transform="translate(-60, 5)"/><g style="pointer-events: none;" class="djs-drag-group" transform="translate(-14)"/><g style="pointer-events: none;" class="djs-drag-group" transform="translate(15)"/><g style="pointer-events: none;" class="djs-drag-group" transform="translate(20)"/><g style="pointer-events: none;" class="djs-drag-group" transform="translate(-23)"/><g style="pointer-events: none;" class="djs-drag-group" transform="translate(-14)"/><g style="pointer-events: none;" class="djs-drag-group" transform="translate(18)"/></svg>